<?xml version="1.0" encoding="UTF-8" standalone="no"?>
<svg
   xmlns:dc="http://purl.org/dc/elements/1.1/"
   xmlns:cc="http://creativecommons.org/ns#"
   xmlns:rdf="http://www.w3.org/1999/02/22-rdf-syntax-ns#"
   xmlns:svg="http://www.w3.org/2000/svg"
   xmlns="http://www.w3.org/2000/svg"
   viewBox="0 0 310.46667 310.46667"
   height="310.46667"
   width="310.46667"
   xml:space="preserve"
   id="svg2"
   version="1.1"><metadata
     id="metadata8"><rdf:RDF><cc:Work
         rdf:about=""><dc:format>image/svg+xml</dc:format><dc:type
           rdf:resource="http://purl.org/dc/dcmitype/StillImage" /></cc:Work></rdf:RDF></metadata><defs
     id="defs6"><clipPath
       id="clipPath18"
       clipPathUnits="userSpaceOnUse"><path
         id="path16"
         d="M 0,232.85 H 232.85 V 0 H 0 Z" /></clipPath></defs><g
     transform="matrix(1.3333333,0,0,-1.3333333,0,310.46667)"
     id="g10"><g
       id="g12"><g
         clip-path="url(#clipPath18)"
         id="g14"><g
           transform="translate(132.5103,145.5733)"
           id="g20"><path
             id="path22"
             style="fill:#ffde2a;fill-opacity:1;fill-rule:nonzero;stroke:none"
             d="M 0,0 C 0,12.253 9.92,22.191 22.14,22.191 34.37,22.191 44.29,12.253 44.29,0 44.29,-12.254 34.37,-22.183 22.14,-22.183 9.92,-22.183 0,-12.254 0,0 m 22.09,-29.583 c -16.25,0 -29.481,13.25 -29.481,29.538 0,16.275 13.231,29.529 29.481,29.529 16.26,0 29.49,-13.254 29.49,-29.529 0,-16.288 -13.23,-29.538 -29.49,-29.538 M -29,-83.963 c -5.294,-12.71 -19.9,-18.741 -32.596,-13.451 -5.857,2.441 -10.279,6.911 -12.83,12.241 l 14.405,-5.97 c 9.363,-3.9 20.105,0.54 23.997,9.9 3.904,9.369 -0.525,20.13 -9.883,24.03 l -14.891,6.17 c 5.746,2.18 12.278,2.26 18.381,-0.28 6.153,-2.56 10.927,-7.381 13.457,-13.54 2.53,-6.16 2.52,-12.96 -0.04,-19.1 m 6.84,83.918 c 0,-0.196 0,-0.392 0.01,-0.576 l -28.508,-41.412 c -4.618,0.21 -9.252,-0.6 -13.646,-2.41 -1.937,-0.79 -3.752,-1.761 -5.455,-2.88 l -62.599,25.77 c 0.001,0 -1.449,-23.83 4.588,-41.59 l 44.254,-18.26 c 2.222,-9.93 9.034,-18.64 19.084,-22.83 16.443,-6.87 35.402,0.96 42.242,17.41 1.78,4.3 2.61,8.81 2.49,13.31 l 40.79,29.15 c 0.33,-0.011 0.67,-0.02 1,-0.02 24.41,0 44.25,19.9 44.25,44.338 0,24.44 -19.84,44.322 -44.25,44.322 -24.401,0 -44.25,-19.882 -44.25,-44.322" /></g><g
           transform="translate(116.4248,232.8501)"
           id="g24"><path
             id="path26"
             style="fill:#ffde2a;fill-opacity:1;fill-rule:nonzero;stroke:none"
             d="m 0,0 c -64.3,0 -116.425,-52.125 -116.425,-116.425 0,-64.3 52.125,-116.426 116.425,-116.426 64.3,0 116.425,52.126 116.425,116.426 C 116.425,-52.125 64.3,0 0,0 m 0,-15 c 55.926,0 101.425,-45.499 101.425,-101.425 0,-55.926 -45.499,-101.426 -101.425,-101.426 -55.926,0 -101.425,45.5 -101.425,101.426 C -101.425,-60.499 -55.926,-15 0,-15" /></g></g></g></g></svg>