<svg width="24" height="8" viewBox="0 0 24 8" fill="none" xmlns="http://www.w3.org/2000/svg">
<path d="M21.24 7.68C21.1127 7.84974 20.9232 7.96196 20.7131 7.99196C20.5031 8.02197 20.2897 7.96731 20.12 7.84C19.9503 7.7127 19.838 7.52318 19.808 7.31314C19.778 7.1031 19.8327 6.88974 19.96 6.72L21.4 4.8L0.800001 4.8C0.587828 4.8 0.384344 4.71571 0.234315 4.56569C0.0842861 4.41566 1.24639e-06 4.21217 1.25567e-06 4C1.26494e-06 3.78783 0.0842861 3.58434 0.234315 3.43431C0.384344 3.28429 0.587828 3.2 0.800001 3.2L21.4 3.2L19.96 1.28C19.897 1.19595 19.8511 1.10032 19.825 0.998545C19.799 0.896774 19.7932 0.790864 19.808 0.686863C19.8229 0.582861 19.8581 0.482804 19.9116 0.392405C19.9651 0.302005 20.036 0.223034 20.12 0.16C20.204 0.0969651 20.2997 0.051102 20.4015 0.0250287C20.5032 -0.00104454 20.6091 -0.00681701 20.7131 0.00804037C20.8171 0.0228978 20.9172 0.058094 21.0076 0.11162C21.098 0.165146 21.177 0.235954 21.24 0.32L23.6352 3.5136L23.6456 3.5272L24 4L23.6456 4.472L23.6352 4.4864L21.24 7.68Z" fill="#0689FF"/>
</svg>
