<svg width="22" height="16" viewBox="0 0 22 16" fill="none" xmlns="http://www.w3.org/2000/svg">
<path fill-rule="evenodd" clip-rule="evenodd" d="M18.6817 6.42241H2.73025C2.44333 6.42241 2.21074 6.655 2.21074 6.94192V13.4181C2.21074 13.705 2.44333 13.9376 2.73025 13.9376H18.6817C18.9686 13.9376 19.2012 13.705 19.2012 13.4181V6.94192C19.2012 6.655 18.9686 6.42241 18.6817 6.42241ZM2.73025 4.62183C1.4489 4.62183 0.410156 5.66057 0.410156 6.94192V13.4181C0.410156 14.6995 1.4489 15.7382 2.73025 15.7382H18.6817C19.963 15.7382 21.0017 14.6995 21.0017 13.4181V6.94192C21.0017 5.66057 19.963 4.62183 18.6817 4.62183H2.73025Z" fill="#0688FF"/>
<path fill-rule="evenodd" clip-rule="evenodd" d="M15.5061 2.10722H5.90695C5.62003 2.10722 5.38744 2.33982 5.38744 2.62674V4.63985H16.0256V2.62674C16.0256 2.33982 15.793 2.10722 15.5061 2.10722ZM5.90695 0.306641C4.6256 0.306641 3.58685 1.34538 3.58685 2.62674V6.44043H17.8262V2.62674C17.8262 1.34538 16.7875 0.306641 15.5061 0.306641H5.90695Z" fill="#0688FF"/>
</svg>
