<svg width="117" height="40" viewBox="0 0 117 40" fill="none" xmlns="http://www.w3.org/2000/svg">
<path fill-rule="evenodd" clip-rule="evenodd" d="M10.8783 4.44751C9.24055 4.44872 7.91509 5.77515 7.9163 7.40963C7.91509 9.04411 9.24176 10.3705 10.8795 10.3718H13.8427V7.41084C13.8439 5.77636 12.5173 4.44993 10.8783 4.44751C10.8795 4.44751 10.8795 4.44751 10.8783 4.44751V4.44751ZM10.8783 12.3481H2.97884C1.34108 12.3493 0.0144178 13.6758 0.0156283 15.3102C0.0132074 16.9447 1.33987 18.2711 2.97763 18.2736H10.8783C12.5161 18.2724 13.8427 16.9459 13.8415 15.3114C13.8427 13.6758 12.5161 12.3493 10.8783 12.3481V12.3481Z" fill="#C4C4C4"/>
<path fill-rule="evenodd" clip-rule="evenodd" d="M29.6427 15.3101C29.6439 13.6756 28.3172 12.3492 26.6795 12.348C25.0417 12.3492 23.715 13.6756 23.7162 15.3101V18.2734H26.6795C28.3172 18.2722 29.6439 16.9458 29.6427 15.3101ZM21.742 15.3101V7.40951C21.7432 5.77624 20.4177 4.4498 18.78 4.44739C17.1422 4.4486 15.8156 5.77503 15.8168 7.40951V15.3101C15.8144 16.9446 17.141 18.271 18.7788 18.2734C20.4165 18.2722 21.7432 16.9458 21.742 15.3101Z" fill="#C4C4C4"/>
<path fill-rule="evenodd" clip-rule="evenodd" d="M18.78 34.0746C20.4177 34.0734 21.7444 32.7469 21.7432 31.1125C21.7444 29.478 20.4177 28.1515 18.78 28.1503H15.8168V31.1125C15.8156 32.7457 17.1422 34.0722 18.78 34.0746ZM18.78 26.1728H26.6807C28.3184 26.1716 29.6451 24.8451 29.6439 23.2106C29.6463 21.5762 28.3196 20.2497 26.6819 20.2473H18.7812C17.1434 20.2485 15.8168 21.575 15.818 23.2094C15.8168 24.8451 17.1422 26.1716 18.78 26.1728V26.1728Z" fill="#C4C4C4"/>
<path fill-rule="evenodd" clip-rule="evenodd" d="M0.0156258 23.2107C0.0144154 24.8451 1.34108 26.1716 2.97883 26.1728C4.61659 26.1716 5.94325 24.8451 5.94204 23.2107V20.2485H2.97883C1.34108 20.2497 0.0144154 21.5762 0.0156258 23.2107ZM7.9163 23.2107V31.1113C7.91388 32.7457 9.24055 34.0722 10.8783 34.0746C12.5161 34.0734 13.8427 32.747 13.8415 31.1125V23.2131C13.8439 21.5786 12.5173 20.2522 10.8795 20.2497C9.24055 20.2497 7.91509 21.5762 7.9163 23.2107C7.9163 23.2119 7.9163 23.2107 7.9163 23.2107Z" fill="#C4C4C4"/>
<path d="M38.3493 25.7936L41.1577 24.1579C42.3922 25.9685 43.997 26.8738 45.9722 26.8738C46.9392 26.8738 47.7005 26.6886 48.256 26.3183C48.8321 25.9274 49.1201 25.413 49.1201 24.7752C49.1201 24.2608 48.8835 23.8082 48.4103 23.4172C47.9577 23.0263 47.4742 22.7383 46.9598 22.5531C46.4454 22.3474 45.6739 22.0799 44.6451 21.7507C44.46 21.689 44.3262 21.6478 44.2439 21.6272C43.5032 21.3804 42.8757 21.1437 42.3614 20.9174C41.8676 20.6705 41.3429 20.3516 40.7874 19.9607C40.2319 19.5492 39.8101 19.0451 39.522 18.4485C39.234 17.8312 39.09 17.1214 39.09 16.319C39.09 14.7553 39.7484 13.5002 41.0651 12.5538C42.3819 11.6074 44.0176 11.1342 45.9722 11.1342C47.433 11.1342 48.8115 11.5251 50.1077 12.3069C51.4039 13.0682 52.3709 14.0455 53.0088 15.2388L50.4163 16.8128C49.2024 15.1462 47.7313 14.3129 46.0031 14.3129C45.0566 14.3129 44.3262 14.5084 43.8119 14.8993C43.3181 15.2697 43.0712 15.7635 43.0712 16.3807C43.0712 16.8951 43.2872 17.358 43.7193 17.7695C44.1719 18.1604 44.6349 18.4485 45.1081 18.6336C45.5813 18.8188 46.25 19.0554 47.1141 19.3435C47.3404 19.4052 47.505 19.4566 47.6079 19.4978C51.2702 20.6705 53.1013 22.44 53.1013 24.806C53.1013 26.2668 52.4841 27.5116 51.2496 28.5403C50.0357 29.5485 48.3074 30.0526 46.0648 30.0526C44.3365 30.0526 42.7934 29.672 41.4355 28.9107C40.0981 28.1494 39.0694 27.1104 38.3493 25.7936ZM56.4962 29.4971V4.28278H60.3848V29.4971H56.4962ZM67.8534 24.4974C67.8534 25.1558 68.1106 25.7113 68.625 26.164C69.1599 26.596 69.8594 26.8121 70.7236 26.8121C71.9581 26.8121 73.0074 26.4006 73.8715 25.5776C74.7562 24.7546 75.1986 23.6744 75.1986 22.3371V20.7014C74.2521 20.9277 73.1102 21.1437 71.7729 21.3495C69.1599 21.761 67.8534 22.8103 67.8534 24.4974ZM63.9031 24.8369C63.9031 21.4832 66.3926 19.436 71.3717 18.6954C73.1822 18.4279 74.4579 18.181 75.1986 17.9547V16.9979C75.1986 16.1338 74.8899 15.4548 74.2727 14.961C73.6555 14.4673 72.8325 14.2204 71.8037 14.2204C69.8491 14.2204 68.162 15.0228 66.7424 16.6276L64.366 14.5907C65.2919 13.5002 66.3926 12.6567 67.6682 12.06C68.9644 11.4428 70.3224 11.1342 71.742 11.1342C74.3962 11.1342 76.289 11.7823 77.4206 13.0785C78.5522 14.3541 79.118 16.1441 79.118 18.4485V29.4971H75.322V27.275C74.9517 28.0363 74.3036 28.6947 73.3777 29.2502C72.4724 29.7851 71.4025 30.0526 70.1681 30.0526C68.2135 30.0526 66.6806 29.5691 65.5696 28.6021C64.4586 27.6351 63.9031 26.38 63.9031 24.8369ZM82.1117 20.6088C82.1117 17.7489 82.8729 15.4548 84.3955 13.7266C85.9386 11.9983 87.924 11.1342 90.3518 11.1342C92.1213 11.1342 93.6129 11.6691 94.8268 12.739C96.0407 13.8089 96.802 15.0331 97.1106 16.4116L93.7775 17.3374C93.5306 16.5556 93.1088 15.8869 92.5122 15.3314C91.9155 14.7553 91.2057 14.4673 90.3827 14.4673C89.0453 14.4673 87.996 15.0536 87.2348 16.2264C86.4941 17.3992 86.1237 18.86 86.1237 20.6088C86.1237 22.5428 86.5249 24.0448 87.3273 25.1147C88.1298 26.1845 89.1482 26.7195 90.3827 26.7195C91.288 26.7195 92.0801 26.4109 92.7591 25.7936C93.4586 25.1558 93.9421 24.4357 94.2096 23.6333L97.5427 24.59C97.1518 26.0302 96.2979 27.3059 94.9811 28.4169C93.6644 29.5074 92.1213 30.0526 90.3518 30.0526C87.924 30.0526 85.9386 29.1987 84.3955 27.491C82.8729 25.7628 82.1117 23.4687 82.1117 20.6088ZM100.475 29.4971V4.28278H104.363V18.7879L110.69 11.6897H115.597L109.023 18.9423L115.998 29.4971H111.431L106.493 21.689L104.363 24.0345V29.4971H100.475Z" fill="#C4C4C4"/>
</svg>
