<svg width="122" height="38" viewBox="0 0 122 38" fill="none" xmlns="http://www.w3.org/2000/svg">
<path d="M70.6208 2.10229V4.869C70.6283 5.05453 70.7083 5.22972 70.8436 5.35691C70.9789 5.48411 71.1587 5.55317 71.3443 5.54925H77.7707L70.3663 16.1452C69.8982 16.8263 69.8982 17.5919 69.8982 18.0175V20.8258C69.8982 21.2513 70.366 21.6768 70.7916 21.4641C74.9618 19.2086 80.0257 19.4214 83.8131 21.4215C84.2809 21.6765 84.7065 21.2087 84.7065 20.7832V17.847C84.6637 17.464 84.5362 17.0384 84.0681 16.7831C81.9408 15.5919 79.4298 15.2516 77.0467 15.2942L83.4297 6.18755C84.0256 5.33614 84.3659 4.82576 84.3659 4.44278V2.10229C84.3586 1.91664 84.2787 1.7413 84.1434 1.61396C84.0081 1.48663 83.8282 1.41748 83.6424 1.42139H71.3017C71.211 1.41656 71.1203 1.43086 71.0355 1.46337C70.9507 1.49588 70.8737 1.54587 70.8095 1.61008C70.7453 1.6743 70.6953 1.75131 70.6628 1.83611C70.6303 1.92091 70.616 2.0116 70.6208 2.10229Z" fill="#C4C4C4"/>
<path d="M21.8965 22.0176H25.6413C25.8251 22.0241 26.0049 21.9627 26.1462 21.8449C26.2876 21.7271 26.3805 21.5614 26.4072 21.3794V11.1663C26.4072 11.0996 26.4072 11.0322 26.4071 10.9642C26.4046 8.73238 26.4015 5.84704 29.0031 5.84704C31.3785 5.84704 31.3392 8.43429 31.3078 10.5029C31.3043 10.7318 31.3009 10.9543 31.3009 11.1663V21.3794C31.3009 21.7199 31.5989 22.0177 31.9818 22.0603H35.7266C35.9123 22.0642 36.0921 21.995 36.2274 21.8677C36.3627 21.7403 36.4426 21.565 36.4499 21.3794V11.1663C36.4499 11.0688 36.4496 10.9673 36.4493 10.8627C36.4457 9.7799 36.4411 8.35659 36.7903 7.46416C36.9718 7.01036 37.282 6.61952 37.6827 6.33977C38.0834 6.06001 38.5572 5.90354 39.0457 5.88963C40.1522 5.88963 40.9608 6.27261 41.2586 7.54922C41.3921 8.1503 41.3684 9.53756 41.3521 10.4977C41.3476 10.761 41.3436 10.9923 41.3436 11.1663V21.3794C41.3436 21.7199 41.6416 22.0177 42.0245 22.0603H45.7272C45.9129 22.0642 46.0928 21.995 46.228 21.8677C46.3633 21.7403 46.4432 21.565 46.4506 21.3794V9.20893C46.4506 8.89882 46.4562 8.58307 46.4619 8.26488C46.4944 6.44361 46.5283 4.54281 45.5143 3.1663C44.4505 1.67684 42.7483 1.03854 41.1738 1.03854C38.9607 1.03854 36.8753 2.18749 35.9819 4.61303C34.9605 2.18749 33.4712 1.03854 31.1307 1.03854C28.8328 1.03854 27.0878 2.18749 26.1944 4.61303H26.1093V2.10229C26.0956 1.93026 26.0182 1.76952 25.8923 1.65149C25.7664 1.53345 25.601 1.4666 25.4284 1.46399H21.939C21.7533 1.46011 21.5734 1.52928 21.4382 1.65661C21.3029 1.78394 21.223 1.95926 21.2156 2.14489V21.3793C21.2434 21.5456 21.325 21.6983 21.4481 21.8136C21.5711 21.929 21.7287 22.0006 21.8965 22.0176Z" fill="#C4C4C4"/>
<path fill-rule="evenodd" clip-rule="evenodd" d="M103.6 11.8898C103.6 5.80457 100.579 1.03854 95.0043 1.03854C89.5574 1.03854 86.536 5.71938 86.5786 11.7195C86.5786 17.6771 89.5574 22.4431 95.0043 22.4431C100.281 22.4431 103.6 17.7623 103.6 11.8898ZM92.0681 11.1238C92.0681 8.78335 92.2383 4.99601 95.0043 4.99601C96.1959 4.99601 97.0469 5.50652 97.4725 6.86832C97.9407 8.40037 98.0257 10.3577 98.0257 11.9749C98.0257 14.443 97.8556 18.4857 94.9619 18.4857C92.0663 18.4857 92.0675 13.6028 92.0681 11.2229L92.0681 11.1238Z" fill="#C4C4C4"/>
<path d="M107.047 22.0176H110.792C110.98 22.0158 111.162 21.9463 111.302 21.8211C111.443 21.6959 111.534 21.524 111.558 21.337V10.9533C111.558 9.63412 111.643 8.48479 112.153 7.29364C112.579 6.35729 113.43 5.76171 114.324 5.76171C116.711 5.76171 116.687 8.35322 116.667 10.4246C116.666 10.6056 116.664 10.7826 116.664 10.9536V21.4216C116.707 21.7194 117.005 21.9746 117.345 22.0172H121.09C121.263 22.0249 121.432 21.9682 121.566 21.8583C121.7 21.7483 121.788 21.5927 121.813 21.4216V9.29373C121.813 7.4213 121.813 4.8255 120.835 3.29357C119.771 1.63373 118.111 1.03815 116.452 1.03815C113.856 1.03815 112.409 2.27216 111.345 4.91056H111.26V1.97437C111.222 1.82063 111.135 1.68344 111.012 1.5836C110.889 1.48375 110.737 1.42671 110.579 1.42113H107.09C106.912 1.42248 106.742 1.4878 106.609 1.60509C106.476 1.72237 106.39 1.88371 106.366 2.05943V21.3367C106.366 21.6772 106.664 21.975 107.047 22.0176Z" fill="#C4C4C4"/>
<path fill-rule="evenodd" clip-rule="evenodd" d="M64.1455 22.1614C64.3057 22.1461 64.4572 22.081 64.5785 21.9751L64.5799 21.975C64.8518 21.7484 65.1988 21.4521 65.5694 21.1355C66.2429 20.5604 66.9945 19.9185 67.5161 19.5068C67.8139 19.2941 67.7714 18.8685 67.5161 18.5281C67.434 18.4102 67.3514 18.2954 67.2695 18.1816C66.6714 17.3507 66.1118 16.5733 66.1118 15.0387V9.2088C66.1118 9.01397 66.1129 8.8202 66.1139 8.62769C66.1262 6.38205 66.1376 4.30837 64.4522 2.74059C63.0054 1.33633 60.6224 0.868286 58.7926 0.868286C55.2181 0.868286 51.2605 2.18749 50.4095 6.61313C50.3244 7.0813 50.6649 7.29403 50.9627 7.37909L54.5798 7.76207C54.9203 7.76207 55.133 7.42156 55.2181 7.08117C55.516 5.54912 56.7926 4.82575 58.2395 4.82575C59.0048 4.82575 59.8559 5.12354 60.324 5.80444C60.813 6.48165 60.8032 7.39193 60.7943 8.21119C60.7932 8.31857 60.792 8.42438 60.792 8.52791V8.99595C60.4392 9.03747 60.0683 9.07674 59.6859 9.11724C57.7162 9.32583 55.4385 9.56705 53.7281 10.3151C51.387 11.3366 49.7274 13.3791 49.7274 16.443C49.7274 20.3154 52.1955 22.2729 55.3446 22.2729C57.9828 22.2729 59.4723 21.6339 61.5149 19.5494C61.6143 19.6923 61.7047 19.8253 61.7904 19.9513C62.2915 20.6882 62.6313 21.188 63.6851 22.0602C63.8242 22.1412 63.9852 22.1766 64.1455 22.1614ZM60.7914 13.0545C60.7912 12.9789 60.7911 12.9028 60.7911 12.826V12.0181C58.0677 12.0181 55.2165 12.6139 55.2165 15.8054C55.2165 17.4226 56.0676 18.5289 57.5144 18.5289C58.5783 18.5289 59.5146 17.8906 60.1102 16.8267C60.7953 15.5769 60.7935 14.4041 60.7914 13.0545Z" fill="#C4C4C4"/>
<path fill-rule="evenodd" clip-rule="evenodd" d="M14.9527 22.1614C15.113 22.1461 15.2644 22.081 15.3857 21.9751L15.3872 21.975C15.6591 21.7484 16.006 21.4521 16.3767 21.1355C17.0502 20.5604 17.8018 19.9185 18.3233 19.5068C18.6211 19.2941 18.5787 18.8685 18.3233 18.5281C18.2413 18.4102 18.1587 18.2954 18.0767 18.1816C17.4787 17.3507 16.9191 16.5733 16.9191 15.0387V9.2088C16.9191 9.01398 16.9201 8.8202 16.9212 8.62769C16.9335 6.38205 16.9449 4.30838 15.2595 2.74059C13.8126 1.33633 11.4297 0.868286 9.59985 0.868286C6.02536 0.868286 2.06776 2.18749 1.21673 6.61313C1.13167 7.0813 1.47218 7.29403 1.76997 7.37909L5.38705 7.76207C5.72757 7.76207 5.94029 7.42156 6.02536 7.08117C6.32327 5.54912 7.59988 4.82575 9.04674 4.82575C9.81205 4.82575 10.6632 5.12354 11.1313 5.80444C11.6203 6.48165 11.6104 7.39193 11.6016 8.2112C11.6004 8.31857 11.5993 8.42439 11.5993 8.52791V8.99595C11.2465 9.03747 10.8756 9.07674 10.4932 9.11724C8.52351 9.32583 6.24582 9.56705 4.53538 10.3151C2.19425 11.3366 0.534668 13.3791 0.534668 16.443C0.534668 20.3154 3.00281 22.2729 6.15185 22.2729C8.79012 22.2729 10.2796 21.6339 12.3221 19.5494C12.4216 19.6923 12.512 19.8253 12.5977 19.9513C13.0988 20.6882 13.4385 21.188 14.4924 22.0602C14.6315 22.1412 14.7925 22.1766 14.9527 22.1614ZM11.6412 13.0546C11.6411 12.979 11.641 12.9028 11.641 12.826V12.0181C8.91752 12.0181 6.0664 12.6139 6.0664 15.8054C6.0664 17.4226 6.91743 18.5289 8.36429 18.5289C9.42817 18.5289 10.3645 17.8906 10.9601 16.8267C11.6452 15.5769 11.6433 14.4041 11.6412 13.0546Z" fill="#C4C4C4"/>
<path d="M78.7056 26.0602C77.8122 24.9113 72.748 25.507 70.4927 25.8049C69.8118 25.89 69.6842 25.2943 70.3225 24.8687C74.3651 22.0176 80.961 22.8686 81.7269 23.8048C82.4929 24.741 81.5142 31.379 77.7262 34.5284C77.1307 34.9964 76.5773 34.7411 76.8329 34.1028L76.8774 33.9915C77.7489 31.8147 79.5839 27.231 78.7056 26.0602Z" fill="#C4C4C4"/>
<path d="M75.7696 29.4223C68.7481 34.6141 58.5352 37.3799 49.7265 37.3799C37.3858 37.3799 26.3218 32.8266 17.8961 25.2521C17.2578 24.6565 17.811 23.8478 18.6194 24.3159C27.6835 29.5925 38.8752 32.7416 50.4498 32.7416C58.2373 32.7416 66.8331 31.1246 74.7482 27.7627C75.9393 27.2946 76.9185 28.5712 75.7696 29.4223Z" fill="#C4C4C4"/>
</svg>
