<svg width="12" height="10" viewBox="0 0 12 10" fill="none" xmlns="http://www.w3.org/2000/svg">
<path d="M2.43969 3.31507H0.161566V9.98655H2.43969V3.31507Z" fill="#646464"/>
<path d="M2.0567 0.201635C1.83957 0.0701661 1.58442 3.99915e-06 1.32341 1.70346e-10C1.14925 -2.66581e-06 0.97681 0.0312427 0.816005 0.0919395C0.655199 0.152636 0.5092 0.241586 0.386406 0.353675C0.26361 0.465763 0.166442 0.598778 0.100488 0.745069C0.0345343 0.891361 0.00109609 1.04804 0.00209702 1.2061C0.00359731 1.44299 0.082364 1.67416 0.228461 1.87046C0.374557 2.06677 0.581438 2.2194 0.823005 2.30911C1.06457 2.39882 1.33 2.42158 1.58581 2.37454C1.84161 2.32749 2.07634 2.21274 2.26037 2.04475C2.4444 1.87677 2.56949 1.66308 2.61986 1.43064C2.67023 1.19821 2.64363 0.957443 2.5434 0.738716C2.44317 0.51999 2.27382 0.333104 2.0567 0.201635Z" fill="#646464"/>
<path d="M6.09651 3.31473H3.90192L3.89433 10H6.17245V6.69872C6.17245 5.83032 6.3547 4.98949 7.53932 4.98949C8.72395 4.98949 8.72395 5.98884 8.72395 6.76074V9.98622H11.0021V6.32655C11.0021 4.52773 10.5389 3.14932 8.26073 3.14932C7.82654 3.1339 7.39588 3.22577 7.01471 3.41512C6.63355 3.60448 6.31619 3.88422 6.09651 4.22448V3.31473Z" fill="#646464"/>
</svg>
