<svg width="107" height="24" viewBox="0 0 107 24" fill="none" xmlns="http://www.w3.org/2000/svg">
<path d="M0 23.6163V0.767435H6.99415C12.0513 0.767435 14.5798 2.74418 14.5798 6.69767C14.5798 7.97674 14.2551 9.08139 13.6055 10.0116C12.956 10.9419 12.0745 11.5232 10.961 11.7558C12.2601 11.9419 13.2692 12.5116 13.9883 13.4651C14.7306 14.3953 15.1134 15.6163 15.1366 17.1279C15.1366 21.4535 12.318 23.6163 6.68098 23.6163H0ZM7.20293 20.4767C8.73398 20.4767 9.82428 20.1395 10.4738 19.4651C11.1234 18.7907 11.4481 17.8953 11.4481 16.7791C11.4481 15.6395 11.0886 14.8139 10.3694 14.3023C9.6735 13.7907 8.56 13.5349 7.02894 13.5349H3.61886V20.4767H7.20293ZM11.0306 6.97674C11.0306 4.93023 9.76629 3.90697 7.23772 3.90697H3.61886V10.3953H6.95935C9.6735 10.3953 11.0306 9.25581 11.0306 6.97674Z" fill="#000228"/>
<path d="M17.5376 15.3488C17.5376 12.5349 18.1639 10.407 19.4166 8.96511C20.6693 7.49999 22.4091 6.76744 24.6361 6.76744C26.8631 6.76744 28.5797 7.43022 29.786 8.75581C31.0155 10.0581 31.6534 11.9767 31.6998 14.5116L31.5607 17.093H21.4C21.6088 19.6046 22.8615 20.8605 25.158 20.8605C26.7587 20.8605 28.4521 20.5698 30.2384 19.9884L30.9691 23.0232C30.2268 23.2791 29.2641 23.5 28.081 23.686C26.8979 23.8953 25.9236 24 25.158 24C20.0777 24 17.5376 21.1163 17.5376 15.3488ZM24.7753 10.0116C23.685 10.0116 22.8615 10.3372 22.3047 10.9884C21.7712 11.6163 21.4696 12.6744 21.4 14.1628H27.8374C27.8374 11.3953 26.8167 10.0116 24.7753 10.0116Z" fill="#000228"/>
<path d="M34.0312 22.8488L34.7967 19.6744C37.0005 20.3721 38.752 20.7209 40.0511 20.7209C41.3501 20.7209 42.2317 20.593 42.6956 20.3372C43.1596 20.1046 43.3915 19.686 43.3915 19.0814C43.3915 18.4767 43.1828 18.0465 42.7652 17.7907C42.3476 17.5349 41.5589 17.2674 40.399 16.9884C38.1024 16.4302 36.5018 15.8139 35.5971 15.1395C34.6924 14.4419 34.24 13.3139 34.24 11.7558C34.24 8.43023 36.3742 6.76744 40.6426 6.76744C42.4752 6.76744 44.5978 7.06976 47.0104 7.67441L46.3493 10.9884C44.0527 10.3372 42.2781 10.0116 41.0254 10.0116C39.7727 10.0116 38.926 10.1279 38.4852 10.3605C38.0676 10.5698 37.8589 10.9419 37.8589 11.4767C37.8589 12.0116 38.0676 12.407 38.4852 12.6628C38.926 12.8953 40.0395 13.2558 41.8257 13.7442C43.6119 14.2325 44.9226 14.8023 45.7577 15.4535C46.5928 16.0814 47.0104 17.1628 47.0104 18.6977C47.0104 22.2093 44.853 23.9651 40.5382 23.9651C38.52 23.9651 36.351 23.593 34.0312 22.8488Z" fill="#000228"/>
<path d="M53.2738 7.0465L53.3434 8.05813C55.2224 7.19767 56.6955 6.76744 57.7626 6.76744C59.6416 6.76744 61.0219 7.32557 61.9034 8.44185C62.8081 9.53488 63.2605 11.2558 63.2605 13.6046V23.6163H59.6764V13.7093C59.6764 12.593 59.4792 11.7209 59.0849 11.093C58.6905 10.4651 58.0758 10.1512 57.2407 10.1512C56.4055 10.1512 55.1181 10.5581 53.3782 11.3721V23.6163H49.7941V7.0465H53.2738Z" fill="#000228"/>
<path d="M65.9746 23.6163V20.407H71.1594V10.2558H66.253V7.0465H74.7434V20.407H79.6498V23.6163H65.9746ZM72.76 4.63953C72.0641 4.63953 71.5073 4.43022 71.0898 4.01162C70.6954 3.56976 70.4982 2.99999 70.4982 2.30232C70.4982 1.60464 70.707 1.0465 71.1246 0.6279C71.5421 0.209295 72.0989 -7.62939e-06 72.7948 -7.62939e-06C73.5139 -7.62939e-06 74.0591 0.209295 74.4302 0.6279C74.8246 1.02325 75.0218 1.58139 75.0218 2.30232C75.0218 3.02325 74.8246 3.59302 74.4302 4.01162C74.0359 4.43022 73.4791 4.63953 72.76 4.63953Z" fill="#000228"/>
<path d="M82.5379 23.6163V0.418598H86.122V13.7093L88.4185 13.4651C89.7176 11.7907 90.8543 9.97674 91.8286 8.02325L92.3158 7.0465H96.213C94.7516 10.1395 93.1277 12.7209 91.3415 14.7907C92.8261 16.907 94.3224 19.407 95.8302 22.2907L96.5262 23.6163H92.455C91.3183 21.1512 90.0192 18.7907 88.5577 16.5349L86.122 16.7791V23.6163H82.5379Z" fill="#000228"/>
<path d="M101.954 23.6163V18.5581H107V23.6163H101.954Z" fill="#000228"/>
</svg>
