<svg width="219" height="408" viewBox="0 0 219 408" fill="none" xmlns="http://www.w3.org/2000/svg">
<g clip-path="url(#clip0_2_377)">
<path d="M218.978 104.188H216.575V38.196C216.575 28.0658 212.561 18.3505 205.415 11.1874C198.269 4.02422 188.578 5.01548e-06 178.473 0H38.9976C28.8923 0 19.2008 4.02421 12.0552 11.1874C4.90967 18.3505 0.895325 28.0658 0.895325 38.196V400.241C0.895328 410.371 4.90967 420.086 12.0552 427.249C19.2008 434.413 28.8923 438.437 38.9976 438.437H178.473C188.578 438.437 198.269 434.412 205.415 427.249C212.56 420.086 216.574 410.371 216.574 400.241V151.163H218.977L218.978 104.188Z" fill="#F4F4F4"/>
<path d="M180.01 9.93359H161.805C162.642 11.9914 162.962 14.2241 162.736 16.4349C162.509 18.6457 161.744 20.7668 160.507 22.6113C159.271 24.4558 157.601 25.9671 155.644 27.012C153.687 28.0569 151.504 28.6034 149.287 28.6033H69.3837C67.1669 28.6032 64.9841 28.0566 63.0276 27.0116C61.0711 25.9666 59.401 24.4553 58.1645 22.6108C56.9279 20.7663 56.1628 18.6453 55.9366 16.4346C55.7103 14.2239 56.0299 11.9913 56.8672 9.93359H39.8629C32.3163 9.93359 25.0789 12.9388 19.7426 18.2882C14.4064 23.6376 11.4085 30.8929 11.4085 38.458V399.977C11.4085 407.542 14.4064 414.797 19.7426 420.147C25.0789 425.496 32.3163 428.501 39.8629 428.501H180.01C187.556 428.501 194.794 425.496 200.13 420.147C205.466 414.797 208.464 407.542 208.464 399.977V38.4574C208.464 30.8924 205.466 23.6372 200.13 18.288C194.794 12.9387 187.556 9.93359 180.01 9.93359H180.01Z" fill="white"/>
<path d="M109.936 223.779C96.877 223.779 84.1116 219.897 73.2537 212.624C62.3958 205.351 53.9332 195.014 48.9358 182.92C43.9385 170.826 42.631 157.517 45.1786 144.678C47.7262 131.839 54.0146 120.045 63.2484 110.789C72.4823 101.532 84.2469 95.2283 97.0546 92.6744C109.862 90.1205 123.138 91.4313 135.203 96.4409C147.267 101.451 157.579 109.934 164.834 120.819C172.089 131.703 175.961 144.5 175.961 157.591C175.941 175.139 168.979 191.962 156.601 204.371C144.223 216.779 127.441 223.759 109.936 223.779V223.779ZM109.936 92.6633C97.1257 92.6633 84.6035 96.4713 73.9524 103.606C63.3014 110.74 54.9999 120.88 50.0978 132.744C45.1956 144.608 43.913 157.663 46.4121 170.257C48.9112 182.852 55.0797 194.421 64.1377 203.501C73.1957 212.582 84.7362 218.765 97.3 221.271C109.864 223.776 122.886 222.49 134.721 217.576C146.556 212.662 156.671 204.34 163.788 193.662C170.905 182.985 174.704 170.432 174.704 157.591C174.684 140.377 167.854 123.874 155.712 111.702C143.57 99.5296 127.107 92.6828 109.936 92.6633V92.6633Z" fill="#3F3D56"/>
<path d="M134.186 138.363C139.841 133.573 143.276 126.007 142.375 118.64C141.474 111.274 135.895 104.503 128.658 102.938C121.422 101.374 113.172 105.704 110.974 112.791C109.764 99.128 108.37 84.8927 101.124 73.2576C94.563 62.7222 83.1988 55.1838 70.8826 53.8352C58.5663 52.4865 45.599 57.5802 37.9178 67.3251C30.2366 77.0701 28.3559 91.2372 33.7356 102.425C37.6986 110.667 44.9999 116.801 52.6499 121.791C77.0559 137.711 107.331 143.09 136.139 138.84L134.186 138.363Z" fill="#CFDEF3"/>
<path d="M50.0967 57.8625C60.2592 66.1603 69.5821 75.4407 77.9307 85.5696C90.9963 101.367 101.569 119.079 109.281 138.088C109.845 139.474 107.599 140.078 107.041 138.707C94.4231 107.813 74.2801 80.5838 48.4541 59.5092C47.2944 58.5625 48.9466 56.9237 50.0967 57.8625V57.8625Z" fill="white"/>
<path d="M53.5554 288.706C57.3755 288.706 60.4724 285.602 60.4724 281.772C60.4724 277.943 57.3755 274.838 53.5554 274.838C49.7353 274.838 46.6384 277.943 46.6384 281.772C46.6384 285.602 49.7353 288.706 53.5554 288.706Z" fill="#17275F"/>
<path d="M168.203 286.815H80.1693C78.8351 286.815 77.5555 286.284 76.6121 285.338C75.6687 284.392 75.1387 283.11 75.1387 281.772C75.1387 280.435 75.6687 279.152 76.6121 278.206C77.5555 277.261 78.8351 276.729 80.1693 276.729H168.203C169.538 276.729 170.817 277.261 171.76 278.206C172.704 279.152 173.234 280.435 173.234 281.772C173.234 283.11 172.704 284.392 171.76 285.338C170.817 286.284 169.538 286.815 168.203 286.815Z" fill="#DAE9FF"/>
<path d="M140.9 286.876H79.8058C78.4555 286.876 77.1606 286.338 76.2058 285.381C75.251 284.424 74.7146 283.126 74.7146 281.772C74.7146 280.419 75.251 279.12 76.2058 278.163C77.1606 277.206 78.4555 276.668 79.8058 276.668H140.9C142.25 276.668 143.545 277.206 144.5 278.163C145.455 279.12 145.991 280.419 145.991 281.772C145.991 283.126 145.455 284.424 144.5 285.381C143.545 286.338 142.25 286.876 140.9 286.876Z" fill="#5784F5"/>
<path d="M53.5554 318.963C57.3755 318.963 60.4724 315.859 60.4724 312.029C60.4724 308.2 57.3755 305.095 53.5554 305.095C49.7353 305.095 46.6384 308.2 46.6384 312.029C46.6384 315.859 49.7353 318.963 53.5554 318.963Z" fill="#17275F"/>
<path d="M168.203 317.072H80.1693C78.8351 317.072 77.5555 316.541 76.6121 315.595C75.6687 314.65 75.1387 313.367 75.1387 312.029C75.1387 310.692 75.6687 309.409 76.6121 308.464C77.5555 307.518 78.8351 306.987 80.1693 306.987H168.203C169.538 306.987 170.817 307.518 171.76 308.464C172.704 309.409 173.234 310.692 173.234 312.029C173.234 313.367 172.704 314.65 171.76 315.595C170.817 316.541 169.538 317.072 168.203 317.072Z" fill="#DAE9FF"/>
<path d="M53.5554 349.221C57.3755 349.221 60.4724 346.117 60.4724 342.287C60.4724 338.457 57.3755 335.353 53.5554 335.353C49.7353 335.353 46.6384 338.457 46.6384 342.287C46.6384 346.117 49.7353 349.221 53.5554 349.221Z" fill="#17275F"/>
<path d="M168.203 347.33H80.1693C78.8351 347.33 77.5555 346.799 76.6121 345.853C75.6687 344.907 75.1387 343.625 75.1387 342.287C75.1387 340.95 75.6687 339.667 76.6121 338.721C77.5555 337.775 78.8351 337.244 80.1693 337.244H168.203C169.538 337.244 170.817 337.775 171.76 338.721C172.704 339.667 173.234 340.95 173.234 342.287C173.234 343.625 172.704 344.907 171.76 345.853C170.817 346.799 169.538 347.33 168.203 347.33Z" fill="#DAE9FF"/>
<path d="M120.778 317.133H79.8058C78.4555 317.133 77.1606 316.596 76.2058 315.639C75.251 314.681 74.7146 313.383 74.7146 312.03C74.7146 310.676 75.251 309.378 76.2058 308.421C77.1606 307.464 78.4555 306.926 79.8058 306.926H120.778C122.128 306.926 123.423 307.464 124.378 308.421C125.333 309.378 125.869 310.676 125.869 312.03C125.869 313.383 125.333 314.681 124.378 315.639C123.423 316.596 122.128 317.133 120.778 317.133V317.133Z" fill="#5784F5"/>
<path d="M157.249 347.391H79.8058C78.4555 347.391 77.1606 346.853 76.2058 345.896C75.251 344.939 74.7146 343.64 74.7146 342.287C74.7146 340.933 75.251 339.635 76.2058 338.678C77.1606 337.721 78.4555 337.183 79.8058 337.183H157.249C158.599 337.183 159.894 337.721 160.849 338.678C161.804 339.635 162.34 340.933 162.34 342.287C162.34 343.64 161.804 344.939 160.849 345.896C159.894 346.853 158.599 347.391 157.249 347.391V347.391Z" fill="#5784F5"/>
<path d="M144.894 147.299H136.251V121.697C136.252 120.945 136.55 120.224 137.081 119.692C137.611 119.161 138.33 118.861 139.081 118.861H142.064C142.814 118.861 143.533 119.161 144.064 119.692C144.594 120.224 144.893 120.945 144.894 121.697V147.299Z" fill="#3F3D56"/>
<path d="M150.133 190.865H67.5196L67.223 144.189C67.2198 143.468 67.3612 142.754 67.6387 142.088C67.9162 141.423 68.3241 140.821 68.8383 140.316L89.5915 120.053C90.5761 119.088 91.8953 118.543 93.272 118.533L128.006 118.215C128.794 118.21 129.573 118.379 130.288 118.709C131.004 119.039 131.638 119.522 132.147 120.125L132.15 120.129L148.648 140.411C149.607 141.593 150.132 143.07 150.133 144.594L150.133 190.865Z" fill="#161B3D"/>
<path d="M150.134 190.865H105.738V149.034C105.738 147.759 106.191 146.527 107.016 145.557L126.306 122.886V122.886C126.807 122.296 127.43 121.822 128.132 121.497C128.834 121.172 129.599 121.004 130.372 121.005H130.392C131.169 121.007 131.936 121.18 132.639 121.51C133.343 121.84 133.966 122.32 134.465 122.917L148.881 140.122C149.69 141.088 150.133 142.308 150.134 143.568V190.865Z" fill="#7398F6"/>
<path d="M131.301 174.798H124.878C124.461 174.798 124.062 174.632 123.767 174.336C123.472 174.041 123.306 173.64 123.306 173.222V167.824C123.306 167.406 123.472 167.005 123.767 166.71C124.062 166.414 124.461 166.248 124.878 166.248H131.301C131.718 166.248 132.118 166.414 132.412 166.71C132.707 167.005 132.873 167.406 132.873 167.824V173.222C132.873 173.64 132.707 174.041 132.412 174.336C132.118 174.632 131.718 174.798 131.301 174.798V174.798Z" fill="white"/>
<path d="M131.301 160.964H124.878C124.461 160.964 124.062 160.798 123.767 160.502C123.472 160.207 123.306 159.806 123.306 159.388V154.115C123.306 153.697 123.472 153.297 123.767 153.001C124.062 152.706 124.461 152.54 124.878 152.539H131.301C131.718 152.54 132.118 152.706 132.412 153.001C132.707 153.297 132.873 153.697 132.873 154.115V159.388C132.873 159.806 132.707 160.207 132.412 160.502C132.118 160.798 131.718 160.964 131.301 160.964V160.964Z" fill="white"/>
<path d="M91.5782 172.696H85.1551C84.7383 172.696 84.3387 172.53 84.044 172.234C83.7493 171.939 83.5835 171.538 83.583 171.121V165.722C83.5835 165.304 83.7493 164.904 84.044 164.608C84.3387 164.313 84.7383 164.147 85.1551 164.146H91.5782C91.9949 164.147 92.3945 164.313 92.6892 164.608C92.9839 164.904 93.1497 165.304 93.1502 165.722V171.121C93.1497 171.538 92.9839 171.939 92.6892 172.234C92.3945 172.53 91.9949 172.696 91.5782 172.696Z" fill="white"/>
<path d="M91.5782 158.862H85.1551C84.7383 158.862 84.3387 158.696 84.044 158.4C83.7493 158.105 83.5835 157.704 83.583 157.286V152.014C83.5835 151.596 83.7493 151.195 84.044 150.9C84.3387 150.604 84.7383 150.438 85.1551 150.438H91.5782C91.9949 150.438 92.3945 150.604 92.6892 150.9C92.9839 151.195 93.1497 151.596 93.1502 152.014V157.286C93.1497 157.704 92.9839 158.105 92.6892 158.4C92.3945 158.696 91.9949 158.862 91.5782 158.862Z" fill="white"/>
<path d="M166.121 191.411H53.7494C53.5826 191.411 53.4227 191.345 53.3048 191.226C53.1868 191.108 53.1206 190.948 53.1206 190.781C53.1206 190.614 53.1868 190.453 53.3048 190.335C53.4227 190.217 53.5826 190.15 53.7494 190.15H166.121C166.288 190.15 166.448 190.217 166.566 190.335C166.684 190.453 166.75 190.614 166.75 190.781C166.75 190.948 166.684 191.108 166.566 191.226C166.448 191.345 166.288 191.411 166.121 191.411Z" fill="#3F3D56"/>
</g>
<defs>
<clipPath id="clip0_2_377">
<rect width="219" height="439" fill="white"/>
</clipPath>
</defs>
</svg>
