<svg width="48" height="48" viewBox="0 0 48 48" fill="none" xmlns="http://www.w3.org/2000/svg">
<path d="M39.5532 17.7604L24.0003 4.86811L8.44751 17.7604V24.5453H4.69965V20.867L2.39176 22.7805L0 19.8951L24.0003 0L48.0007 19.8951L45.6089 22.7805L43.301 20.867V24.5453H39.5532V17.7604ZM13.6943 47.9685H22.2202V44.2206H17.4418V38.9738H22.2202V35.2263H17.4418V31.4785H22.2202V27.731H13.6943V47.9685ZM38.0543 31.4785H41.1462V47.9685H44.8937V31.4785H47.9857V27.731H38.0543V31.4785ZM8.06664 38.4212L11.3216 47.9685H7.36204L4.29572 38.9742H3.76287V47.9685H0.0150148V27.731H5.6368C8.73645 27.731 11.2582 30.2528 11.2582 33.3524C11.2582 35.5823 9.95302 37.513 8.06664 38.4212ZM3.76287 35.2263H5.6368C6.6699 35.2263 7.51036 34.3855 7.51036 33.3524C7.51036 32.3193 6.6699 31.4785 5.6368 31.4785H3.76287V35.2263ZM31.9641 37.1797L28.5726 27.8409L28.4975 27.868V27.731H24.75V47.9685H28.4975V38.6131L31.8894 47.9523L31.9641 47.9252V47.9685H35.7119V27.731H31.9641V37.1797Z" fill="#3B3C45"/>
<mask id="mask0_2_553" style="mask-type:alpha" maskUnits="userSpaceOnUse" x="0" y="0" width="49" height="48">
<path d="M39.5532 17.7604L24.0003 4.86811L8.44751 17.7604V24.5453H4.69965V20.867L2.39176 22.7805L0 19.8951L24.0003 0L48.0007 19.8951L45.6089 22.7805L43.301 20.867V24.5453H39.5532V17.7604ZM13.6943 47.9685H22.2202V44.2206H17.4418V38.9738H22.2202V35.2263H17.4418V31.4785H22.2202V27.731H13.6943V47.9685ZM38.0543 31.4785H41.1462V47.9685H44.8937V31.4785H47.9857V27.731H38.0543V31.4785ZM8.06664 38.4212L11.3216 47.9685H7.36204L4.29572 38.9742H3.76287V47.9685H0.0150148V27.731H5.6368C8.73645 27.731 11.2582 30.2528 11.2582 33.3524C11.2582 35.5823 9.95302 37.513 8.06664 38.4212ZM3.76287 35.2263H5.6368C6.6699 35.2263 7.51036 34.3855 7.51036 33.3524C7.51036 32.3193 6.6699 31.4785 5.6368 31.4785H3.76287V35.2263ZM31.9641 37.1797L28.5726 27.8409L28.4975 27.868V27.731H24.75V47.9685H28.4975V38.6131L31.8894 47.9523L31.9641 47.9252V47.9685H35.7119V27.731H31.9641V37.1797Z" fill="#3B3C45"/>
</mask>
<g mask="url(#mask0_2_553)">
<rect x="-3.6004" y="25.1998" width="54.0008" height="25.2004" fill="#F7A804"/>
</g>
</svg>
