<svg width="18" height="18" viewBox="0 0 18 18" fill="none" xmlns="http://www.w3.org/2000/svg">
<path d="M6.09503 0H2.28635C1.02363 0 0 1.02363 0 2.28635V6.57681H1.80741V2.28635C1.80741 2.02184 2.02184 1.80741 2.28635 1.80741H6.09503V0Z" fill="#0889FE"/>
<path d="M11.6997 1.80741V0H15.7137C16.9764 0 18 1.02363 18 2.28635V6.57681H16.1926V2.28635C16.1926 2.02184 15.9782 1.80741 15.7137 1.80741H11.6997Z" fill="#0889FE"/>
<path d="M11.6997 16.1926H15.7137C15.9782 16.1926 16.1926 15.9782 16.1926 15.7137V12.1815H18V15.7137C18 16.9764 16.9764 18 15.7137 18H11.6997V16.1926Z" fill="#0889FE"/>
<path d="M1.80741 12.1815V15.7137C1.80741 15.9782 2.02184 16.1926 2.28635 16.1926H6.09503V18H2.28635C1.02363 18 0 16.9764 0 15.7137V12.1815H1.80741Z" fill="#0889FE"/>
</svg>
