<svg width="21" height="19" viewBox="0 0 21 19" fill="none" xmlns="http://www.w3.org/2000/svg">
<path d="M20.9708 7.15784C20.9009 6.94823 20.7148 6.79547 20.4908 6.76382L14.1977 5.87364L11.3833 0.32269C11.2831 0.125085 11.0763 0 10.85 0C10.6236 0 10.4169 0.125085 10.3167 0.32269L7.50212 5.87364L1.20915 6.76382C0.985176 6.79547 0.799027 6.94823 0.729087 7.1578C0.659108 7.3674 0.71747 7.59747 0.879592 7.75127L5.43312 12.0721L4.35833 18.1732C4.32003 18.3905 4.41178 18.6099 4.59491 18.7395C4.69851 18.8127 4.82122 18.85 4.94453 18.85C5.03921 18.85 5.13421 18.828 5.2212 18.7835L10.8499 15.9029L16.4784 18.7835C16.6789 18.886 16.9216 18.8689 17.1048 18.7394C17.2879 18.6099 17.3797 18.3904 17.3414 18.1732L16.2663 12.0721L20.8203 7.75123C20.9824 7.59747 21.0408 7.3674 20.9708 7.15784Z" fill="#FFCA56"/>
</svg>
