<svg width="11" height="9" viewBox="0 0 11 9" fill="none" xmlns="http://www.w3.org/2000/svg">
<path d="M10.8769 1.00421C10.4793 1.18942 9.97583 1.36326 9.52463 1.42105C9.9835 1.13495 10.7115 0.539053 10.8769 0C10.4482 0.264789 9.67292 0.547579 9.16717 0.649895C8.7633 0.199895 8.18723 0 7.54896 0C6.32289 0 5.46781 1.09184 5.46781 2.36842V3.31579C3.66478 3.31579 1.90682 1.87247 0.812833 0.473684C0.615022 0.82624 0.51117 1.22825 0.512178 1.63753C0.512178 2.49916 1.26539 3.37358 1.86175 3.78947C1.49798 3.77763 0.809227 3.48584 0.509473 3.31579V3.34279C0.509473 4.464 1.25818 5.22521 2.27284 5.43742C2.08758 5.49095 1.86175 5.68421 0.992685 5.68421C1.27486 6.60079 2.69339 7.08537 3.66478 7.10526C2.9048 7.72437 1.54982 8.05263 0.509473 8.05263C0.329621 8.05263 0.232257 8.06305 0.0587158 8.04174C1.04047 8.69542 2.41167 9 3.66478 9C7.74729 9 9.97538 5.72305 9.97538 2.66684C9.97538 2.56642 9.97223 2.23011 9.96727 2.13158C10.4036 1.80853 10.5803 1.47032 10.8769 1.00421" fill="#646464"/>
</svg>
